<?xml version="1.0" encoding="utf-8"?>
<!-- Generator: Adobe Illustrator 21.0.2, SVG Export Plug-In . SVG Version: 6.00 Build 0)  -->
<svg version="1.1" id="Layer_1" xmlns="http://www.w3.org/2000/svg" xmlns:xlink="http://www.w3.org/1999/xlink" x="0px" y="0px"
	 width="34.8px" height="32px" viewBox="0 0 34.8 32" style="enable-background:new 0 0 34.8 32;" xml:space="preserve">
<style type="text/css">
	.st0{fill:#2294B7;}
</style>
<path class="st0" d="M2.4,15.9c0,0.6,0.4,1.1,1,1.3l11,3.3l0.4,7.6c0,0.3,0.2,0.6,0.5,0.7c0.1,0,0.2,0,0.2,0c0.2,0,0.4-0.1,0.6-0.3
	l3.9-4.3l5.5,3.8c0.2,0.2,0.5,0.3,0.8,0.3c0.7,0,1.3-0.5,1.4-1.2l4.6-23.3c0.1-0.3,0-0.6-0.3-0.7c-0.2-0.2-0.5-0.2-0.8-0.1L3.3,14.5
	C2.7,14.7,2.4,15.3,2.4,15.9L2.4,15.9z M16.3,26.3L16,21.5l2.8,1.9L16.3,26.3z M26.4,26.8l-10-6.9l14-13.6L26.4,26.8z M28.9,5.7
	L15,19.1L4,15.8L28.9,5.7z"/>
</svg>
