<?xml version="1.0" encoding="utf-8"?>
<!-- Generator: Adobe Illustrator 21.0.2, SVG Export Plug-In . SVG Version: 6.00 Build 0)  -->
<svg version="1.1" id="Layer_1" xmlns="http://www.w3.org/2000/svg" xmlns:xlink="http://www.w3.org/1999/xlink" x="0px" y="0px"
	 width="34.8px" height="32px" viewBox="0 0 34.8 32" style="enable-background:new 0 0 34.8 32;" xml:space="preserve">
<style type="text/css">
	.st0{fill:#2294B7;stroke:#2294B7;stroke-width:0.3769;stroke-miterlimit:10;}
</style>
<g>
	<g>
		<path class="st0" d="M18.1,30.6l-1.3-2.1c-1.5-2.4-3-4.9-4.5-7.4c-0.3-0.6-0.7-1.1-1-1.7c-1.4-2.2-2.8-4.6-3.1-6.9
			c0-0.3,0-0.7,0-0.8v-1.2c0.7-6.2,5.6-9,9.9-9c3.2,0,7.3,1.6,9.2,6.1c0,0.1,0.1,0.2,0.1,0.2c0.1,0.3,0.3,0.6,0.4,0.9l0,0
			c0.4,1.2,0.5,1.6,0.5,1.8v1.3c0,2.4-1.5,4.8-3,7.2c-0.5,0.8-1.1,1.7-1.5,2.5c-0.1,0.2-0.3,0.4-0.4,0.6c-0.1,0.1-0.2,0.3-0.3,0.4
			c-0.1,0.2-0.3,0.4-0.4,0.7c-0.2,0.3-0.4,0.6-0.5,0.9c-0.6,1-1.1,1.9-1.7,2.9c-0.5,0.9-1,1.8-1.6,2.7L18.1,30.6z M9.4,10.7v1.1
			c0,0,0,0.4,0,0.6c0.3,2,1.6,4.2,2.9,6.3c0.4,0.6,0.7,1.1,1,1.7c1.5,2.5,3,5,4.5,7.4l0.2,0.3c0.3-0.6,0.7-1.2,1-1.8
			c0.6-1,1.1-1.9,1.7-2.9c0.2-0.3,0.4-0.6,0.5-0.9c0.1-0.2,0.3-0.4,0.4-0.6s0.3-0.4,0.4-0.6c0.1-0.1,0.2-0.3,0.3-0.4
			c0.5-0.9,1-1.8,1.6-2.6c1.4-2.2,2.8-4.4,2.8-6.5v-1.3c0,0,0-0.3-0.4-1.3V9.1c-0.1-0.2-0.2-0.5-0.3-0.7c0-0.1-0.1-0.2-0.1-0.3
			c-1.6-3.9-5.2-5.3-8-5.3C14.3,2.9,10,5.3,9.4,10.7z M18.1,15.5c-1.7,0-3.1-1-3.8-2.7c-0.1-0.3-0.1-0.6-0.1-1.1V11
			c0-2.4,2-3.7,4-3.7c2.3,0,4.1,1.8,4.1,4.1C22.2,13.6,20.4,15.5,18.1,15.5z M18.2,8.5c-0.9,0-2.7,0.5-2.7,2.4v0.7
			c0,0.4,0,0.6,0.1,0.6c0.6,1.6,1.9,1.8,2.6,1.8c1.6,0,2.9-1.3,2.9-2.8C21,9.8,19.7,8.5,18.2,8.5z"/>
	</g>
</g>
</svg>
