<?xml version="1.0" encoding="utf-8"?>
<!-- Generator: Adobe Illustrator 21.0.2, SVG Export Plug-In . SVG Version: 6.00 Build 0)  -->
<svg version="1.1" id="Layer_1" xmlns="http://www.w3.org/2000/svg" xmlns:xlink="http://www.w3.org/1999/xlink" x="0px" y="0px"
	 width="34.8px" height="32px" viewBox="0 0 34.8 32" style="enable-background:new 0 0 34.8 32;" xml:space="preserve">
<style type="text/css">
	.st0{fill:#2294B7;}
</style>
<g>
	<g>
		<path class="st0" d="M17.6,16.8h0.2c1.7,0,3.2-0.6,4.2-1.8c2.3-2.6,1.9-7,1.9-7.4c-0.1-3.2-1.6-4.7-2.9-5.4
			c-0.9-0.5-2-0.8-3.2-0.8h-0.1c-0.7,0-2,0.1-3.2,0.8c-1.3,0.7-2.8,2.2-2.9,5.4c0,0.4-0.4,4.9,1.9,7.4
			C14.4,16.2,15.9,16.8,17.6,16.8L17.6,16.8z M13.1,7.7L13.1,7.7C13.3,3.4,16.4,3,17.7,3h0.1c1.6,0,4.3,0.7,4.5,4.7l0,0
			c0,0,0.4,4.1-1.5,6.2c-0.7,0.8-1.8,1.3-3.1,1.3h-0.1c-1.3,0-2.3-0.4-3.1-1.3C12.7,11.8,13.1,7.8,13.1,7.7L13.1,7.7z"/>
		<path class="st0" d="M29.9,24.2L29.9,24.2c0-0.1,0-0.1,0-0.2c0-1.2-0.1-3.9-2.7-4.8c0,0,0,0-0.1,0c-2.7-0.7-4.9-2.2-4.9-2.3
			c-0.4-0.3-0.9-0.2-1.1,0.2c-0.3,0.4-0.2,0.9,0.2,1.1c0.1,0.1,2.5,1.7,5.4,2.5c1.4,0.5,1.5,2,1.6,3.3c0,0.1,0,0.1,0,0.1
			c0,0.5,0,1.4-0.1,1.8c-1,0.5-4.7,2.4-10.5,2.4c-5.7,0-9.5-1.9-10.5-2.4c-0.1-0.5-0.1-1.3-0.1-1.8V24c0-1.4,0.2-2.8,1.6-3.3
			c3-0.8,5.3-2.4,5.4-2.5c0.4-0.3,0.5-0.8,0.2-1.1c-0.3-0.4-0.8-0.5-1.1-0.2c0,0-2.2,1.6-4.9,2.3c0,0,0,0-0.1,0
			c-2.6,0.9-2.7,3.6-2.7,4.8c0,0.1,0,0.1,0,0.1l0,0c0,0.3,0,1.9,0.3,2.7c0,0.2,0.2,0.4,0.3,0.5c0.2,0.1,4.5,2.8,11.6,2.8
			s11.4-2.7,11.6-2.8c0.1-0.1,0.2-0.2,0.3-0.4C29.9,26.1,29.9,24.5,29.9,24.2L29.9,24.2z"/>
	</g>
</g>
</svg>
