<?xml version="1.0" encoding="utf-8"?>
<!-- Generator: Adobe Illustrator 23.0.1, SVG Export Plug-In . SVG Version: 6.00 Build 0)  -->
<svg version="1.1" id="Layer_1" xmlns="http://www.w3.org/2000/svg" xmlns:xlink="http://www.w3.org/1999/xlink" x="0px" y="0px"
	 viewBox="0 0 78.2 75.8" style="enable-background:new 0 0 78.2 75.8;" xml:space="preserve">
<style type="text/css">
	.st0{fill:#FFFFFF;}
</style>
<g>
	<g>
		<path class="st0" d="M39.2,60.7c0,1.3-0.8,2.5-1.9,3.1c-0.5,0.2-0.9,0.3-1.4,0.3c-0.8,0-1.5-0.3-2.2-0.8L15.2,47.9H5.4
			c-1.9,0-3.4-1.5-3.4-3.4V31.1c0-1.9,1.5-3.4,3.4-3.4h9.8l18.5-15.3c1-0.8,2.4-1,3.6-0.5c1.2,0.6,1.9,1.7,1.9,3.1V60.7z M52.2,55.4
			c-0.1,0-0.2,0-0.2,0c-0.9,0-1.8-0.4-2.4-1l-0.5-0.5c-1.2-1.2-1.3-3.1-0.3-4.4c2.5-3.4,3.9-7.5,3.9-11.7c0-4.6-1.5-8.8-4.4-12.4
			c-1.1-1.3-1-3.3,0.2-4.5l0.5-0.5c0.7-0.7,1.6-1,2.6-1c1,0,1.8,0.5,2.4,1.2c4,4.9,6.1,10.8,6.1,17.1c0,5.9-1.9,11.5-5.4,16.2
			C54.1,54.8,53.2,55.3,52.2,55.4L52.2,55.4z M66.2,65.8c-0.6,0.7-1.5,1.2-2.4,1.2c0,0-0.1,0-0.1,0c-0.9,0-1.8-0.4-2.4-1l-0.4-0.4
			c-1.2-1.2-1.3-3.2-0.2-4.6C66,54.5,69,46.3,69,37.8C69,29,65.8,20.5,60,14c-1.2-1.3-1.1-3.4,0.1-4.6l0.4-0.4c0.7-0.7,1.5-1,2.5-1
			c0.9,0,1.8,0.4,2.4,1.1c7.1,7.9,10.9,18.2,10.9,28.8C76.4,48.1,72.8,58,66.2,65.8L66.2,65.8z M66.2,65.8"/>
	</g>
</g>
</svg>
