<?xml version="1.0" encoding="utf-8"?>
<!-- Generator: Adobe Illustrator 23.1.1, SVG Export Plug-In . SVG Version: 6.00 Build 0)  -->
<svg version="1.1" id="Layer_1" xmlns="http://www.w3.org/2000/svg" xmlns:xlink="http://www.w3.org/1999/xlink" x="0px" y="0px"
	 viewBox="0 0 25 25" style="enable-background:new 0 0 25 25;" xml:space="preserve">
<style type="text/css">
	.st0{fill:#015095;}
</style>
<g>
	<path class="st0" d="M12.5,7.5c2.6,0,4.7,2,4.7,4.7S15.1,17,12.5,17S7.8,15,7.8,12.3S9.9,7.5,12.5,7.5 M15.5,0.4
		c-2-0.5-4.1-0.5-6.1,0v2.8C8.9,3.3,8.4,3.5,8,3.6L6.1,1.7C4.4,2.8,2.8,4.2,1.8,6l1.9,1.9C3.6,8.5,3.4,9,3.2,9.5H0.4
		c-0.5,1.9-0.5,4.1,0,5.9h2.7c0.2,0.5,0.4,1,0.6,1.5l-1.9,1.9c1,1.7,2.5,3.2,4.3,4.3l1.9-1.9c0.5,0.2,0.9,0.4,1.5,0.6v2.8
		c2,0.5,4.1,0.5,6.1,0v-2.8c0.5-0.2,1-0.4,1.5-0.6l1.9,1.9c1.7-1.1,3.3-2.5,4.3-4.3L21.4,17c0.2-0.5,0.4-1,0.6-1.5h2.5
		c0.5-1.9,0.5-4.1,0-5.9h-2.7c-0.2-0.5-0.4-1-0.6-1.5L23.1,6c-1-1.7-2.5-3.2-4.3-4.3L17,3.6c-0.5-0.2-0.9-0.4-1.5-0.6V0.4z"/>
</g>
</svg>
