<?xml version="1.0" encoding="utf-8"?>
<!-- Generator: Adobe Illustrator 24.0.3, SVG Export Plug-In . SVG Version: 6.00 Build 0)  -->
<svg version="1.1" id="Layer_1" xmlns="http://www.w3.org/2000/svg" xmlns:xlink="http://www.w3.org/1999/xlink" x="0px" y="0px"
	 viewBox="0 0 70.6 70.6" enable-background="new 0 0 70.6 70.6" xml:space="preserve">
<path opacity="0.5" fill="#FFFFFF" enable-background="new    " d="M35.3,20.2c-3,0-5.5-2.5-5.5-5.5V5.5c0-3,2.5-5.5,5.5-5.5
	s5.5,2.5,5.5,5.5v9.2C40.8,17.8,38.4,20.2,35.3,20.2z"/>
<path opacity="0.5" fill="#FFFFFF" enable-background="new    " d="M20.7,26.3c-1.4,0-2.8-0.5-3.9-1.6l-6.5-6.5
	c-2.2-2.2-2.2-5.6,0-7.8s5.6-2.2,7.8,0l6.5,6.5c2.2,2.2,2.2,5.6,0,7.8C23.6,25.7,22.2,26.3,20.7,26.3z"/>
<path opacity="0.5" fill="#FFFFFF" enable-background="new    " d="M14.7,40.8H5.5c-3,0-5.5-2.5-5.5-5.5s2.5-5.5,5.5-5.5h9.2
	c3,0,5.5,2.5,5.5,5.5C20.2,38.4,17.8,40.8,14.7,40.8z"/>
<path opacity="0.5" fill="#FFFFFF" enable-background="new    " d="M14.2,61.9c-1.4,0-2.8-0.5-3.9-1.6c-2.2-2.2-2.2-5.6,0-7.8
	l6.5-6.5c2.2-2.2,5.6-2.2,7.8,0c2.2,2.2,2.2,5.6,0,7.8l-6.5,6.5C17.1,61.4,15.6,61.9,14.2,61.9z"/>
<path opacity="0.5" fill="#FFFFFF" enable-background="new    " d="M35.3,70.6c-3,0-5.5-2.5-5.5-5.5v-9.2c0-3,2.5-5.5,5.5-5.5
	s5.5,2.5,5.5,5.5v9.2C40.8,68.2,38.4,70.6,35.3,70.6z"/>
<path opacity="0.5" fill="#FFFFFF" enable-background="new    " d="M56.4,61.9c-1.4,0-2.8-0.5-3.9-1.6L46,53.8
	c-2.2-2.2-2.2-5.6,0-7.8c2.2-2.2,5.6-2.2,7.8,0l6.5,6.5c2.2,2.2,2.2,5.6,0,7.8C59.2,61.4,57.8,61.9,56.4,61.9z"/>
<path opacity="0.5" fill="#FFFFFF" enable-background="new    " d="M65.1,40.8h-9.2c-3,0-5.5-2.5-5.5-5.5s2.5-5.5,5.5-5.5h9.2
	c3,0,5.5,2.5,5.5,5.5C70.6,38.4,68.2,40.8,65.1,40.8z"/>
<path opacity="0.5" fill="#FFFFFF" enable-background="new    " d="M49.9,26.3c-1.4,0-2.8-0.5-3.9-1.6c-2.2-2.2-2.2-5.6,0-7.8
	l6.5-6.5c2.2-2.2,5.6-2.2,7.8,0c2.2,2.2,2.2,5.6,0,7.8l-6.5,6.5C52.7,25.7,51.3,26.3,49.9,26.3z"/>
</svg>
