<?xml version="1.0" encoding="utf-8"?>
<!-- Generator: Adobe Illustrator 24.3.0, SVG Export Plug-In . SVG Version: 6.00 Build 0)  -->
<svg version="1.1" id="Layer_1" xmlns="http://www.w3.org/2000/svg" xmlns:xlink="http://www.w3.org/1999/xlink" x="0px" y="0px"
	 viewBox="0 0 220.2 57.6" style="enable-background:new 0 0 220.2 57.6;" xml:space="preserve">
<style type="text/css">
	.st0{fill:#4D4D4F;}
	.st1{fill:#00AEEF;}
</style>
<g>
	<g>
		<g>
			<path class="st0" d="M0,32.2c2.5,0,3.3-0.6,3.3-3.5c0-22.6,0-22.6,0-22.6c0-2.8-0.8-3.5-3.3-3.5c0-2.5,0-2.5,0-2.5
				c25.4,0,25.4,0,25.4,0c0.5,8.5,0.5,8.5,0.5,8.5c-4,0-4,0-4,0c-1.1-3.8-1.7-4.7-5.2-4.7c-4.8,0-4.8,0-4.8,0c0,11.5,0,11.5,0,11.5
				c2.7,0,2.7,0,2.7,0c3,0,3.8-0.6,4-3.5c3.6,0,3.6,0,3.6,0c0,10.6,0,10.6,0,10.6c-3.6,0-3.6,0-3.6,0c-0.2-2.7-1-3.5-4-3.5
				c-2.7,0-2.7,0-2.7,0c0,12,0,12,0,12c5.6,0,5.6,0,5.6,0c3.2,0,4.4-1.1,4.9-5.7c4.1,0,4.1,0,4.1,0c0,9.2,0,9.2,0,9.2
				C0,34.6,0,34.6,0,34.6V32.2z"/>
			<path class="st0" d="M29.7,33.2c0-5.5,0-5.5,0-5.5c5.2,0,5.2,0,5.2,0c0.5,3.5,2.4,4.4,4.9,4.4c2.2,0,3.8-0.9,3.8-2.8
				c0-1.9-1-2.7-3.2-3.2c-4.1-0.9-4.1-0.9-4.1-0.9c-4.3-0.8-6.7-3.5-6.7-7.9c0-5.8,4.8-8.7,10.3-8.7c4.6,0,7.6,1.3,8.9,1.9
				c0,5.4,0,5.4,0,5.4c-4.9,0-4.9,0-4.9,0c-0.3-2.8-2.1-3.8-4.6-3.8c-2.1,0-3.3,0.9-3.3,2.7c0,1.6,1,2.4,2.7,2.7
				c3.8,0.9,3.8,0.9,3.8,0.9c4.9,0.9,7.9,3.8,7.9,8.5c0,5.4-4.1,8.5-11.3,8.5C33.8,35.4,31.1,33.9,29.7,33.2z"/>
			<path class="st0" d="M52.8,33.2c0-5.5,0-5.5,0-5.5c5.4,0,5.4,0,5.4,0c0.3,3.5,2.2,4.4,4.8,4.4c2.4,0,4-0.9,4-2.8
				c0-1.9-1.1-2.7-3.3-3.2c-4.1-0.9-4.1-0.9-4.1-0.9c-4.1-0.8-6.5-3.5-6.5-7.9c0-5.8,4.6-8.7,10.3-8.7c4.6,0,7.4,1.3,8.7,1.9
				c0,5.4,0,5.4,0,5.4c-4.8,0-4.8,0-4.8,0C66.8,12.9,65,12,62.6,12c-2.2,0-3.5,0.9-3.5,2.7c0,1.6,1,2.4,2.7,2.7
				c3.8,0.9,3.8,0.9,3.8,0.9c5.1,0.9,7.9,3.8,7.9,8.5c0,5.4-4,8.5-11.3,8.5C56.9,35.4,54.2,33.9,52.8,33.2z"/>
			<path class="st0" d="M84.7,19.6c7,0,7,0,7,0c0-6-1-7.7-3.2-7.7C86.1,11.8,85,13.6,84.7,19.6z M97.8,29c1.3,2.1,1.3,2.1,1.3,2.1
				c-2.9,2.8-6.2,4.3-10.8,4.3c-7.8,0-12.4-5.1-12.4-13.6c0-8.4,4.9-13.3,12.4-13.3c8.1,0,11.3,4.7,11.3,12.3c0,2.4,0,2.4,0,2.4
				c-14.9,0-14.9,0-14.9,0c0.2,5.2,1.9,7.4,6.5,7.4C93.4,30.6,95.6,30.2,97.8,29z"/>
			<path class="st0" d="M110.5,8.5c0.5,0.5,1.4,2.5,1.6,4.6c2.2-2.5,4.9-4.4,8.7-4.4c4.1,0,7.5,2.4,7.5,7.6c0,12.5,0,12.5,0,12.5
				c0,2.8,0.5,3.5,2.9,3.5c0,2.4,0,2.4,0,2.4c-14,0-14,0-14,0c0-2.4,0-2.4,0-2.4c2.5,0,3-0.6,3-3.3c0-10.6,0-10.6,0-10.6
				c0-3.2-1.3-4.1-3.3-4.1c-2.1,0-3.3,0.8-4.6,1.6c0,13.1,0,13.1,0,13.1c0,2.7,0.6,3.3,3,3.3c0,2.4,0,2.4,0,2.4c-14,0-14,0-14,0
				c0-2.4,0-2.4,0-2.4c2.4,0,3-0.6,3-3.5c0-11.7,0-11.7,0-11.7c0-3.6-0.5-4.1-2.9-4.1c0-2.4,0-2.4,0-2.4L110.5,8.5z"/>
			<path class="st0" d="M161.1,8.8c0,19.9,0,19.9,0,19.9c0,2.8,0.6,3.5,3,3.5c0,2.4,0,2.4,0,2.4c-14,0-14,0-14,0c0-2.4,0-2.4,0-2.4
				c2.4,0,3-0.6,3-3.5c0-11.7,0-11.7,0-11.7c0-3.6-0.5-4.1-2.9-4.1c0-2.4,0-2.4,0-2.4L161.1,8.8z"/>
			<path class="st0" d="M178.4,22.6c-2.9,0-4.6,1.4-4.6,4.3c0,2.7,1.1,3.5,2.7,3.5c1.1,0,2.7-0.5,3.5-1.4c0.2-6.3,0.2-6.3,0.2-6.3
				H178.4z M191.2,31.4c0,2.2,0,2.2,0,2.2c-1.1,0.6-3.2,1.3-5.5,1.3c-3,0-4.8-1.3-5.2-3.3c-0.8,1.7-3,3.8-7,3.8
				c-4.4,0-7.9-2.2-7.9-7.4c0-5.8,4.3-8.4,12.1-8.4c0.6,0,1.9,0,2.5,0.2c0-2.4,0-2.4,0-2.4c0-3.6-1-5.2-3.3-5.2
				c-2.5,0-3.2,1.7-3.5,4.4c-6,0-6,0-6,0c0-5.2,0-5.2,0-5.2c2.7-1.6,6.8-2.8,11.1-2.8c5.7,0,9.8,2.5,9.8,8.4c0,1.4-0.2,5.7-0.2,10.1
				C188.1,30.8,188.7,31.3,191.2,31.4z"/>
			<path class="st0" d="M131,9.2c0.2,0,0.2,0,0.2,0c0,4.1,0,4.1,0,4.1c2.9,0,2.9,0,2.9,0c0,14.8,0,14.8,0,14.8
				c0,5.5,2.7,7.3,7.4,7.3c2.9,0,5.1-0.8,7.1-1.9c-0.8-2.8-0.8-2.8-0.8-2.8c-1.3,0.5-2.1,0.6-2.9,0.6c-2.5,0-2.9-1.4-2.9-5.1
				c0-12.9,0-12.9,0-12.9c5.2,0,5.2,0,5.2,0c0-4.1,0-4.1,0-4.1c-5.2,0-5.2,0-5.2,0c0-6.5,0-6.5,0-6.5c-7.6,1.1-7.6,1.1-7.6,1.1
				c0,2.5,0,2.5,0,2.5c0,2.4-0.6,2.8-3.3,2.8H131z"/>
			<path class="st0" d="M202.8,0c0.3,0.5,1.1,1.7,1.1,5.1c0,23.7,0,23.7,0,23.7c0,2.8,0.5,3.5,2.9,3.5c0,2.4,0,2.4,0,2.4
				c-14,0-14,0-14,0c0-2.4,0-2.4,0-2.4c2.5,0,3-0.6,3-3.5c0-20.8,0-20.8,0-20.8c0-3.6-0.8-4.1-3.2-4.3c0-2.2,0-2.2,0-2.2L202.8,0z"
				/>
			<path class="st1" d="M215.5,34.9c-2.5,0-4.6-2.1-4.6-4.6s2.1-4.6,4.8-4.6c2.7,0,4.6,2.1,4.6,4.6S218.2,34.9,215.5,34.9z"/>
			<path class="st0" d="M121.5,51.5c2.7,0,2.7,0,2.7,0c0.8,0,1.6,0,2.1-0.2c1.1-0.3,1.6-1.1,1.6-2.1c0-1.1-0.5-2.1-1.7-2.2
				c-0.3,0-0.3,0-1.9,0c-2.7,0-2.7,0-2.7,0V51.5z M129.2,57.5c-1.4,0-1.4,0-1.4,0c-3.6-5.1-3.6-5.1-3.6-5.1c-2.7,0-2.7,0-2.7,0
				c0,5.1,0,5.1,0,5.1c-1,0-1,0-1,0c0-11.5,0-11.5,0-11.5c3.2,0,3.2,0,3.2,0c1.9,0,2.5,0,3.2,0.3c1.9,0.6,2.1,2.5,2.1,3
				c0,1.3-0.6,1.9-0.9,2.2c-0.8,0.8-1.9,0.8-2.5,0.9L129.2,57.5z"/>
			<polygon class="st0" points="139.5,57.5 131.6,57.5 131.6,45.9 139.1,45.9 139.1,47 132.7,47 132.7,51 138.6,51 138.6,52.1 
				132.7,52.1 132.7,56.4 139.5,56.4 			"/>
			<path class="st0" d="M148.7,48.8c0-0.3-0.2-0.6-0.5-0.9c-0.5-0.8-1.4-1.3-2.4-1.3c-1.3,0-2.7,0.6-2.7,2.1c0,1.4,1.3,1.7,1.9,2.1
				c0.3,0,1.9,0.5,2.2,0.6c0.6,0.2,2.7,0.8,2.7,3c0,1.6-1.3,3.3-4.3,3.3c-1.3,0-2.1-0.3-2.7-0.6c-0.8-0.6-1.3-1.4-1.6-2.5
				c1.1-0.5,1.1-0.5,1.1-0.5c0,0.5,0.2,0.9,0.3,1.3c0.5,1.1,1.7,1.4,2.9,1.4c2.2,0,3.2-1.1,3.2-2.4c0-0.8-0.3-1.3-0.6-1.6
				c-0.6-0.3-1.3-0.5-2.7-0.9c-1.7-0.3-3.5-0.9-3.5-3.2c0-2.2,2.1-2.8,3.8-2.8c2.9,0,3.6,1.7,4,2.4L148.7,48.8z"/>
			<polygon class="st0" points="160.5,57.5 152.7,57.5 152.7,45.9 160.2,45.9 160.2,47 153.8,47 153.8,51 159.5,51 159.5,52.1 
				153.8,52.1 153.8,56.4 160.5,56.4 			"/>
			<path class="st0" d="M169.8,53l-2.2-5.7l-2.2,5.7H169.8z M172.7,57.5h-1.3l-1.3-3.5h-5.1l-1.3,3.5h-1.3l4.6-11.5h1L172.7,57.5z"
				/>
			<path class="st0" d="M176,51.5c2.7,0,2.7,0,2.7,0c0.8,0,1.4,0,1.9-0.2c1.3-0.3,1.7-1.1,1.7-2.1c0-1.1-0.6-2.1-1.7-2.2
				c-0.3,0-0.5,0-1.9,0c-2.7,0-2.7,0-2.7,0V51.5z M183.8,57.5c-1.4,0-1.4,0-1.4,0c-3.6-5.1-3.6-5.1-3.6-5.1c-2.7,0-2.7,0-2.7,0
				c0,5.1,0,5.1,0,5.1c-0.9,0-0.9,0-0.9,0c0-11.5,0-11.5,0-11.5c3.2,0,3.2,0,3.2,0c1.9,0,2.4,0,3.2,0.3c1.9,0.6,2.1,2.5,2.1,3
				c0,1.3-0.6,1.9-1,2.2c-0.8,0.8-1.9,0.8-2.5,0.9L183.8,57.5z"/>
			<path class="st0" d="M194.9,54.9c-1.1,2.4-2.9,2.7-4.3,2.7c-0.8,0-2.4,0-3.6-1.4c-0.8-1.1-1.3-2.7-1.3-4.4c0-2.4,0.8-6,4.9-6
				c3,0,4,1.7,4.4,2.8c-1.1,0.6-1.1,0.6-1.1,0.6c-0.2-0.9-0.8-1.6-1.3-2.1c-0.8-0.5-1.6-0.5-2.1-0.5c-1.3,0-2.1,0.3-2.9,1.3
				c-0.8,1.1-1,2.4-1,3.6c0,0.8,0.2,2.7,1,3.8c1,1.1,2.2,1.3,3,1.3c0.6,0,1.3,0,1.9-0.5c0.3-0.3,0.9-0.9,1.3-1.9L194.9,54.9z"/>
			<polygon class="st0" points="206.8,57.5 205.7,57.5 205.7,52.1 198.7,52.1 198.7,57.5 197.6,57.5 197.6,45.9 198.7,45.9 
				198.7,51.1 205.7,51.1 205.7,45.9 206.8,45.9 			"/>
		</g>
	</g>
</g>
</svg>
